<?xml version="1.0" encoding="UTF-8"?><svg id="uuid-f5528b57-a3ab-4eb7-874a-d8b5866d6d9a" xmlns="http://www.w3.org/2000/svg" width="16" height="16" viewBox="0 0 16 16"><defs><style>.uuid-d9d95cf5-dd86-4db6-920c-01930987077a{fill:#beb06c;}.uuid-2a7133a1-9a4c-44ea-a1b6-f56ece461467{fill:#bdb06c;}.uuid-1381ef22-e4e7-442e-815e-955d12012226{fill:#e0e0e0;}.uuid-74c2eab9-aa19-443a-81c6-d3383543e6d5{fill:#968642;}</style></defs><path class="uuid-1381ef22-e4e7-442e-815e-955d12012226" d="M11.58,9.2c-.1-.26-.28-.5-.46-.62l-.69-.58.63-.53c.24-.18.42-.41.5-.62l1.69-3.98c.19-.45.14-.95-.13-1.36-.27-.4-.72-.64-1.21-.64h-7.82c-.49,0-.94.24-1.21.64-.27.41-.32.91-.13,1.37l1.69,3.96c.12.28.31.5.56.65l.72.51-.72.5c-.25.16-.44.38-.57.66l-1.69,3.97c-.18.45-.12.96.15,1.37.27.4.72.63,1.2.63h7.82c.48,0,.93-.23,1.2-.63.27-.41.33-.92.15-1.37l-1.68-3.93ZM4.92,2.87h6.16l-1.13,2.65-.18.42-1.59,1.34-1.97-1.38-.12-.29h-.01s-1.16-2.74-1.16-2.74ZM4.91,13.13l.32-.74.97-2.29,1.99-1.38,1.58,1.33.82,1.92.12.29.37.87h-6.17Z"/><path class="uuid-74c2eab9-aa19-443a-81c6-d3383543e6d5" d="M7.75,11.39c-.15.17-.32.38-.46.42-.23.07-.85.46-1.09.46-.26,0-.63-.34-.73-.4,0-.01-.02-.01-.02-.01.04,0,.3-.24.63-.28.54-.05,1.13,0,1.72-.25l-.05.06Z"/><path class="uuid-2a7133a1-9a4c-44ea-a1b6-f56ece461467" d="M11.08,13.13h-6.17l.54-1.27s.01,0,.02.01c.1.06.51.29.78.27.44-.04.81-.26,1.04-.33.14-.04.31-.25.46-.42,0,0,.11-.13.14-.16.12-.11.11-.77.3-2.51,0,0,.25,2.36.46,2.55.15.14.2.14.47.23.21.07.54.06.78.14.2.08.69.33.69.33l.12.29.37.87Z"/><path class="uuid-74c2eab9-aa19-443a-81c6-d3383543e6d5" d="M9.91,5.56c-.06.02-.26.08-.37.14-.06.03-.11.06-.15.08-.1.08-.26.14-.3.16-.01.01-.03.02-.05.03-.06.04-.1.08-.16.12-.06.04-.12.09-.16.12-.03.03-.09.08-.1.08-.45.19-.83-.16-1.04-.18-.14,0-.34-.11-.49-.18-.04-.01-.08-.03-.12-.05-.05-.02-.09-.04-.12-.05-.1-.04-.19-.08-.24-.08-.03,0-.15-.03-.17-.04-.04,0-.14-.06-.21-.08.11,0,.31-.03.37-.04.3-.03.57.11.79.12.44.03.66-.06.89,0,.38.12.88-.02,1.07-.07.21-.06.47-.08.56-.08Z"/><path class="uuid-d9d95cf5-dd86-4db6-920c-01930987077a" d="M9.95,5.53l-.18.41-1.59,1.34-1.97-1.38-.12-.29h.08s.03.01.06.02c.07.02.17.07.21.08.02.01.14.04.17.04.05,0,.14.04.24.08.03.01.2.09.24.1.15.07.36.16.49.17.33.04.62.35,1.07.16,0,0,.04-.02.07-.05.04-.03.1-.08.16-.12.06-.04.1-.08.16-.12.02-.01.04-.02.05-.03.04-.02.2-.08.3-.16.04-.02.09-.05.15-.08.11-.06.41-.17.41-.17Z"/></svg>